# AST/ASF file generated using VICON BodyLanguage
# -----------------------------------------------
:version 1.10
:name VICON
:units
  mass 1.0
  length 0.45
  angle deg
:documentation
   .ast/.asf automatically generated from VICON data using
   VICON BodyBuilder and BodyLanguage model FoxedUp or BRILLIANT.MOD
:root
   order TX TY TZ RX RY RZ
   axis XYZ
   position 0 0 0  
   orientation 0 0 0 
:bonedata
  begin
     id 1 
     name lhipjoint
     direction 0.621036 -0.695554 0.361275 
     length 2.46325 
     axis 0 0 0  XYZ
  end
  begin
     id 2 
     name lfemur
     direction 0.34202 -0.939693 0  
     length 6.54784  
     axis 0 0 20  XYZ
    dof rx ry rz
    limits (-160.0 20.0)
           (-70.0 70.0)
           (-60.0 70.0)
  end
  begin
     id 3 
     name ltibia
     direction 0.34202 -0.939693 0   
     length 7.84737   
     axis 0 0 20   XYZ
    dof rx
    limits (-10.0 170.0)
  end
  begin
     id 4 
     name lfoot
     direction 0.0790693 -0.217241 0.97291   
     length 2.59747   
     axis -90 7.62852e-016 20   XYZ
    dof rx rz
    limits (-45.0 90.0)
           (-70.0 20.0)
  end
  begin
     id 5 
     name ltoes
     direction 1.53572e-011 -4.21898e-011 1   
     length 1.29919   
     axis -90 7.62852e-016 20   XYZ
    dof rx
    limits (-90.0 20.0)
  end
  begin
     id 6 
     name rhipjoint
     direction -0.602353 -0.708375 0.367935   
     length 2.41867  
     axis 0 0 0  XYZ 
  end
  begin
     id 7 
     name rfemur
     direction -0.34202 -0.939693 0   
     length 6.92065   
     axis 0 0 -20   XYZ
    dof rx ry rz
    limits (-160.0 20.0)
           (-70.0 70.0)
           (-70.0 60.0)
  end
  begin
     id 8 
     name rtibia
     direction -0.34202 -0.939693 0   
     length 7.88883   
     axis 0 0 -20   XYZ
    dof rx
    limits (-10.0 170.0)
 end
 begin
     id 9 
     name rfoot
     direction -0.0768692 -0.211196 0.974416   
     length 2.43714  
     axis -90 -7.62852e-016 -20   XYZ
    dof rx rz
    limits (-45.0 90.0)
           (-20.0 70.0)
  end
  begin
     id 10 
     name rtoes
     direction -1.53575e-011 -4.21933e-011 1   
     length 1.22113   
     axis -90 -7.62852e-016 -20   XYZ
    dof rx
    limits (-90.0 20.0)
  end
  begin
     id 11 
     name lowerback
     direction 0.0197937 0.98943 -0.143655   
     length 2.16931   
     axis 0 0 0   XYZ
    dof rx ry rz
    limits (-20.0 45.0)
           (-30.0 30.0)
           (-30.0 30.0)
  end
  begin
     id 12 
     name upperback
     direction -0.00183968 0.999975 0.00684288   
     length 2.17221   
     axis 0 0 0   XYZ
    dof rx ry rz
    limits (-20.0 45.0)
           (-30.0 30.0)
           (-30.0 30.0)
  end
  begin
     id 13 
     name thorax
     direction -0.00950244 0.997208 0.0740685   
     length 2.22549   
     axis 0 0 0   XYZ
    dof rx ry rz
    limits (-20.0 45.0)
           (-30.0 30.0)
           (-30.0 30.0)
  end
  begin
     id 14 
     name lowerneck
     direction 0.0218238 0.996215 0.0841425   
     length 1.77269   
     axis 0 0 0   XYZ
    dof rx ry rz
    limits (-20.0 45.0)
           (-30.0 30.0)
           (-30.0 30.0)
  end
  begin
     id 15 
     name upperneck
     direction -0.00430652 0.994214 -0.107332   
     length 1.76534   
     axis 0 0 0   XYZ
    dof rx ry rz
    limits (-20.0 45.0)
           (-30.0 30.0)
           (-30.0 30.0)
  end
  begin
     id 16
     name head
     direction -0.00328946 0.998959 -0.0454998  
     length 1.82634  
     axis 0 0 0   XYZ
    dof rx ry rz
    limits (-20.0 45.0)
           (-30.0 30.0)
           (-30.0 30.0)
  end
  begin
     id 17 
     name lclavicle
     direction 0.970962 0.239191 0.00450212  
     length 3.84872  
     axis 0 0 0   XYZ
    dof ry rz
    limits (-20.0 10.0)
           (0.0 20.0)
  end
  begin
     id 18 
     name lhumerus
     direction 1 -4.48966e-011 5.74696e-028   
     length 5.22771   
     axis 180 -30 -90   XYZ
    dof rx ry rz
    limits (-60.0 90.0)
           (-90.0 90.0)
           (-90.0 90.0)
  end
  begin
     id 19
     name lradius
     direction 1 -4.4896e-011 4.25109e-027   
     length 3.45251   
     axis 180 -30 -90   XYZ
    dof rx
    limits (-10.0 170.0)
  end
  begin
     id 20
     name lwrist
     direction 1 -4.48971e-011 1.15382e-027   
     length 1.72626   
     axis -5.52449e-016 90 90   XYZ
    dof ry
    limits (-180.0 0.0)
 end
  begin
     id 21 
     name lhand
     direction 1 -4.49034e-011 2.30765e-027   
     length 0.552119   
     axis -1.47248e-015 90 90   XYZ
    dof rx rz
    limits (-90.0 90.0)
           (-45.0 45.0)
  end
  begin
     id 22 
     name lfingers
     direction 1 -4.48951e-011 4.61529e-027   
     length 0.445133   
     axis -2.94495e-015 90 90   XYZ
    dof rx
    limits (0.0 90.0)
  end
  begin
     id 23
     name lthumb
     direction 0.707107 -6.34991e-011 0.707107   
     length 0.639124   
     axis -90 45 2.85299e-015   XYZ
    dof rx rz
    limits (-45.0 45.0)
           (-45.0 45.0)
  end
  begin
     id 24 
     name rclavicle
     direction -0.97424 0.222511 -0.0366699   
     length 3.73439  
     axis 0 0 0   XYZ 
    dof ry rz
    limits (-10.0 20.0)
           (-20.0 0.0)
  end
  begin
     id 25 
     name rhumerus
     direction -1 -4.48956e-011 -4.97258e-028  
     length 5.2398   
     axis 180 30 90   XYZ
    dof rx ry rz
    limits (-90.0 60.0)
           (-90.0 90.0)
           (-90.0 90.0)
  end
  begin
     id 26 
     name rradius
     direction -1 -4.4897e-011 -1.72611e-027   
     length 3.48042   
     axis 180 30 90   XYZ
    dof rx
    limits (-10.0 170.0)
  end
  begin
     id 27 
     name rwrist
     direction -1 -4.48976e-011 1.15382e-027   
     length 1.74021   
     axis -5.52449e-016 -90 -90   XYZ
    dof ry
    limits (-180.0 0.0)
  end
  begin
     id 28
     name rhand
     direction -1 -4.48963e-011 2.30765e-027   
     length 0.618713   
     axis -1.47248e-015 -90 -90   XYZ
    dof rx rz
    limits (-90.0 90.0)
           (-45.0 45.0)
  end
  begin
     id 29
     name rfingers
     direction -1 -4.4888e-011 4.61529e-027   
     length 0.498823   
     axis -2.94495e-015 -90 -90   XYZ
    dof rx
    limits (0.0 90.0)
  end
  begin
     id 30
     name rthumb
     direction -0.707107 -6.34968e-011 0.707107   
     length 0.716213   
     axis -90 -45 -2.85299e-015   XYZ
    dof rx rz
    limits (-45.0 45.0)
           (-45.0 45.0)
  end
:hierarchy
  begin
    root lhipjoint rhipjoint lowerback
    lhipjoint lfemur
    lfemur ltibia
    ltibia lfoot
    lfoot ltoes
    rhipjoint rfemur
    rfemur rtibia
    rtibia rfoot
    rfoot rtoes
    lowerback upperback
    upperback thorax
    thorax lowerneck lclavicle rclavicle
    lowerneck upperneck
    upperneck head
    lclavicle lhumerus
    lhumerus lradius
    lradius lwrist
    lwrist lhand lthumb
    lhand lfingers
    rclavicle rhumerus
    rhumerus rradius
    rradius rwrist
    rwrist rhand rthumb
    rhand rfingers
  end

#!OML:ASF G:\JayActor3\Patient Classification 1\Patient 1\Session 5\male.ASF
:FULLY-SPECIFIED
:DEGREES
100
root -38.9905 17.0308 -5.14541 -88.3438 87.078 -86.7241
lowerback 4.78948 -0.572151 2.90846
upperback 4.98626 -0.54238 -0.850464
thorax 2.41649 -0.113315 -2.48987
lowerneck -9.18935 -0.893045 1.43112
upperneck 9.77835 -1.66229 2.65697
head 4.44735 -0.589026 0.47871
rclavicle -4.77083e-015 -1.35174e-014
rhumerus -33.5796 -3.06846 -88.7405
rradius 32.0115
rwrist 0.92925
rhand -19.2839 -9.00488
rfingers 7.12502
rthumb 7.03111 -38.8681
lclavicle -4.77083e-015 -1.35174e-014
lhumerus -31.4345 3.79962 83.6562
lradius 29.9763
lwrist 20.158
lhand -19.0013 20.9585
lfingers 7.12502
lthumb 7.30391 50.8125
rfemur -8.54288 4.30374 24.1768
rtibia 34.5401
rfoot -25.3398 -12.5976
rtoes 9.22111
lfemur 1.2358 4.23151 -15.8422
ltibia 17.6092
lfoot -16.4706 3.86287
ltoes -5.5985
101
root -39.0042 17.0317 -5.14503 -88.5258 87.1219 -86.9858
lowerback 5.02905 -0.579419 2.88327
upperback 5.03702 -0.541328 -0.877377
thorax 2.33553 -0.111842 -2.50205
lowerneck -9.10854 -0.905653 1.41482
upperneck 9.44186 -1.67188 2.69526
head 4.33117 -0.599382 0.493208
rclavicle 1.59028e-015 1.59028e-015
rhumerus -33.5252 -2.94308 -88.8231
rradius 32.1125
rwrist 0.853517
rhand -19.1646 -9.12853
rfingers 7.12502
rthumb 7.14628 -38.9879
lclavicle 1.59028e-015 1.59028e-015
lhumerus -31.3684 3.82277 83.6263
lradius 30.1021
lwrist 20.2484
lhand -18.9292 20.6988
lfingers 7.12502
lthumb 7.37347 50.5504
rfemur -8.72405 4.32692 24.1246
rtibia 34.6218
rfoot -25.3569 -12.6001
rtoes 9.26908
lfemur 1.04394 4.18021 -15.9096
ltibia 17.709
lfoot -16.4618 3.89074
ltoes -5.47915
102
root -39.0183 17.0326 -5.14452 -88.6883 87.1533 -87.2377
lowerback 5.25695 -0.585687 2.8635
upperback 5.10053 -0.538984 -0.895923
thorax 2.27455 -0.108991 -2.50884
lowerneck -9.03881 -0.932372 1.32735
upperneck 8.76383 -1.68581 2.73657
head 4.55873 -0.622792 0.577746
rclavicle -3.97569e-015 -8.74653e-015
rhumerus -33.455 -2.80578 -88.9022
rradius 32.225
rwrist 0.773324
rhand -19.0739 -9.22356
rfingers 7.12502
rthumb 7.2338 -39.0799
lclavicle -3.97569e-015 -8.74653e-015
lhumerus -31.2848 3.83591 83.6121
lradius 30.2401
lwrist 20.3329
lhand -18.8777 20.4868
lfingers 7.12502
lthumb 7.42322 50.3365
rfemur -8.91839 4.3507 24.086
rtibia 34.7027
rfoot -25.3674 -12.6027
rtoes 9.32959
lfemur 0.82893 4.12605 -15.9635
ltibia 17.8247
lfoot -16.4555 3.92004
ltoes -5.33975
103
root -39.0331 17.0336 -5.14397 -88.8026 87.1684 -87.4529
lowerback 5.48835 -0.59124 2.86142
upperback 5.16564 -0.534962 -0.911233
thorax 2.21349 -0.104719 -2.5223
lowerneck -8.90473 -0.958408 1.27566
upperneck 8.40203 -1.70902 2.8066
head 4.40126 -0.640018 0.608297
rclavicle -1.39149e-015 -3.18055e-015
rhumerus -33.3795 -2.66188 -88.9845
rradius 32.3466
rwrist 0.689298
rhand -19.0817 -9.22792
rfingers 7.12502
rthumb 7.22626 -39.0845
lclavicle -1.39149e-015 -3.18055e-015
lhumerus -31.2004 3.82936 83.6044
lradius 30.3932
lwrist 20.4145
lhand -18.8467 20.3133
lfingers 7.12502
lthumb 7.45313 50.162
rfemur -9.13032 4.37104 24.0632
rtibia 34.7846
rfoot -25.364 -12.6033
rtoes 9.39192
lfemur 0.588839 4.08757 -15.9984
ltibia 17.9576
lfoot -16.4497 3.93919
ltoes -5.20298
104
root -39.0489 17.0347 -5.1435 -88.9153 87.1815 -87.6836
lowerback 5.72288 -0.597001 2.86413
upperback 5.22947 -0.530885 -0.927302
thorax 2.14947 -0.100293 -2.53928
lowerneck -8.80254 -0.965842 1.27042
upperneck 8.04643 -1.70987 2.83529
head 4.25229 -0.646509 0.617873
rclavicle -2.98177e-015 0
rhumerus -33.2948 -2.5124 -89.0691
rradius 32.4739
rwrist 0.594686
rhand -19.1607 -9.17508
rfingers 7.12502
rthumb 7.15008 -39.0343
lclavicle -2.98177e-015 0
lhumerus -31.1209 3.8057 83.6005
lradius 30.5666
lwrist 20.4938
lhand -18.8312 20.1751
lfingers 7.12502
lthumb 7.46806 50.0233
rfemur -9.36923 4.38004 24.0383
rtibia 34.8717
rfoot -25.3487 -12.5933
rtoes 9.46134
lfemur 0.317293 4.06439 -16.0306
ltibia 18.1006
lfoot -16.4356 3.94767
ltoes -5.09332
105
root -39.0658 17.0362 -5.14289 -88.871 87.1849 -87.7784
lowerback 5.9537 -0.602233 2.87121
upperback 5.29519 -0.526007 -0.937749
thorax 2.08968 -0.09529 -2.55302
lowerneck -8.74021 -0.948819 1.30207
upperneck 7.69199 -1.67996 2.82732
head 4.11149 -0.638206 0.610378
rclavicle 9.93923e-016 -3.97569e-016
rhumerus -33.2023 -2.35372 -89.1512
rradius 32.618
rwrist 0.494893
rhand -19.2996 -9.07611
rfingers 7.12502
rthumb 7.01595 -38.9398
lclavicle 9.93923e-016 -3.97569e-016
lhumerus -31.0354 3.78319 83.6
lradius 30.7528
lwrist 20.5736
lhand -18.8169 20.0309
lfingers 7.12502
lthumb 7.48188 49.8786
rfemur -9.64048 4.38906 24.0209
rtibia 34.9624
rfoot -25.3198 -12.5798
rtoes 9.53506
lfemur 0.0112527 4.05757 -16.0515
ltibia 18.2533
lfoot -16.4151 3.94891
ltoes -5.00373
106
root -39.0838 17.0382 -5.14216 -89.1178 87.2021 -88.1865
lowerback 6.18479 -0.61257 2.86229
upperback 5.35854 -0.528512 -0.949013
thorax 2.02699 -0.0945216 -2.55832
lowerneck -8.69636 -0.919224 1.35561
upperneck 7.33483 -1.63401 2.79592
head 3.97358 -0.622329 0.592117
rclavicle 2.78299e-015 1.19271e-015
rhumerus -33.0992 -2.19349 -89.2276
rradius 32.7689
rwrist 0.390126
rhand -19.4337 -8.99808
rfingers 7.12502
rthumb 6.88655 -38.8661
lclavicle 2.78299e-015 1.19271e-015
lhumerus -30.9514 3.75682 83.6032
lradius 30.9527
lwrist 20.6493
lhand -18.8084 19.8922
lfingers 7.12502
lthumb 7.49007 49.7396
rfemur -9.94222 4.37617 23.9839
rtibia 35.0564
rfoot -25.2783 -12.563
rtoes 9.58732
lfemur -0.328886 4.05003 -16.0885
ltibia 18.4103
lfoot -16.3825 3.94051
ltoes -4.93611
107
root -39.1016 17.0402 -5.1409 -90.0248 87.2188 -89.2581
lowerback 6.41528 -0.633925 2.84771
upperback 5.42916 -0.545625 -0.956196
thorax 1.9714 -0.100902 -2.55557
lowerneck -8.66136 -0.879338 1.42115
upperneck 6.97022 -1.57447 2.7517
head 3.83522 -0.599982 0.568306
rclavicle 1.09332e-015 5.1684e-015
rhumerus -32.999 -2.03581 -89.2974
rradius 32.9372
rwrist 0.288169
rhand -19.5346 -8.95766
rfingers 7.12502
rthumb 6.78914 -38.8288
lclavicle 1.09332e-015 5.1684e-015
lhumerus -30.8679 3.71841 83.612
lradius 31.1661
lwrist 20.7194
lhand -18.8136 19.7679
lfingers 7.12502
lthumb 7.48511 49.6155
rfemur -10.2414 4.34511 23.9515
rtibia 35.1488
rfoot -25.2448 -12.5578
rtoes 9.63211
lfemur -0.681229 4.03164 -16.1187
ltibia 18.5745
lfoot -16.3412 3.91108
ltoes -4.89627
108
root -39.119 17.0421 -5.1392 -91.604 87.2353 -91.0014
lowerback 6.65066 -0.666648 2.8267
upperback 5.50821 -0.577574 -0.959606
thorax 1.92113 -0.11452 -2.54449
lowerneck -8.61036 -0.842802 1.46715
upperneck 6.58476 -1.51721 2.72394
head 3.68763 -0.578863 0.553375
rclavicle 1.2921e-015 -6.36111e-015
rhumerus -32.8985 -1.88018 -89.3593
rradius 33.1206
rwrist 0.186455
rhand -19.612 -8.93387
rfingers 7.12502
rthumb 6.71438 -38.8074
lclavicle 1.2921e-015 -6.36111e-015
lhumerus -30.7825 3.67474 83.6246
lradius 31.3909
lwrist 20.7884
lhand -18.8223 19.6402
lfingers 7.12502
lthumb 7.47663 49.488
rfemur -10.5319 4.29199 23.9202
rtibia 35.2374
rfoot -25.2208 -12.5574
rtoes 9.67427
lfemur -1.03884 4.0022 -16.1462
ltibia 18.7442
lfoot -16.2956 3.86171
ltoes -4.86679
109
root -39.1359 17.044 -5.13707 -93.8218 87.2423 -93.378
lowerback 6.89418 -0.708417 2.80919
upperback 5.59394 -0.620725 -0.959557
thorax 1.87275 -0.133342 -2.53104
lowerneck -8.55669 -0.803448 1.52331
upperneck 6.19056 -1.45609 2.68729
head 3.53716 -0.555998 0.533953
rclavicle -3.77691e-015 1.98785e-015
rhumerus -32.8061 -1.73586 -89.4133
rradius 33.3217
rwrist 0.0859753
rhand -19.6545 -8.93159
rfingers 7.12502
rthumb 6.67338 -38.8064
lclavicle -3.77691e-015 1.98785e-015
lhumerus -30.7034 3.61336 83.6407
lradius 31.6278
lwrist 20.8602
lhand -18.8347 19.496
lfingers 7.12502
lthumb 7.46473 49.3443
rfemur -10.8062 4.22105 23.8982
rtibia 35.3194
rfoot -25.2095 -12.5607
rtoes 9.73015
lfemur -1.39766 3.97004 -16.1621
ltibia 18.9251
lfoot -16.2489 3.78786
ltoes -4.84716
110
root -39.1526 17.0458 -5.13467 -96.4289 87.2381 -96.1412
lowerback 7.14297 -0.756156 2.79178
upperback 5.68974 -0.671092 -0.953752
thorax 1.83173 -0.155324 -2.51106
lowerneck -8.45787 -0.783417 1.54231
upperneck 5.76161 -1.41619 2.67952
head 3.36759 -0.544031 0.529487
rclavicle 2.88238e-015 5.56597e-015
rhumerus -32.717 -1.59702 -89.4582
rradius 33.5429
rwrist -0.0178982
rhand -19.6415 -8.97509
rfingers 7.12502
rthumb 6.68595 -38.8495
lclavicle 2.88238e-015 5.56597e-015
lhumerus -30.6226 3.54309 83.6631
lradius 31.8774
lwrist 20.9362
lhand -18.8495 19.3429
lfingers 7.12502
lthumb 7.45041 49.1917
rfemur -11.0708 4.13776 23.8831
rtibia 35.3976
rfoot -25.2096 -12.5613
rtoes 9.80303
lfemur -1.76181 3.93126 -16.1696
ltibia 19.1167
lfoot -16.1976 3.69954
ltoes -4.81802
111
root -39.1697 17.0475 -5.13208 -99.0056 87.2185 -98.8791
lowerback 7.40139 -0.802232 2.78331
upperback 5.78737 -0.718193 -0.944389
thorax 1.78773 -0.175332 -2.49228
lowerneck -8.31663 -0.780067 1.53434
upperneck 5.30552 -1.39502 2.69759
head 3.1823 -0.541453 0.537261
rclavicle -7.65321e-015 6.75868e-015
rhumerus -32.6349 -1.4664 -89.4978
rradius 33.7836
rwrist -0.128919
rhand -19.6332 -9.01815
rfingers 7.12502
rthumb 6.69388 -38.8923
lclavicle -7.65321e-015 6.75868e-015
lhumerus -30.5427 3.45655 83.6893
lradius 32.1368
lwrist 21.015
lhand -18.8687 19.1885
lfingers 7.12502
lthumb 7.43188 49.0379
rfemur -11.3419 4.05635 23.8784
rtibia 35.4746
rfoot -25.2109 -12.5601
rtoes 9.87816
lfemur -2.14208 3.89478 -16.167
ltibia 19.3227
lfoot -16.1434 3.61051
ltoes -4.78836
112
root -39.1876 17.0491 -5.12967 -101.364 87.1991 -101.408
lowerback 7.67977 -0.844029 2.77776
upperback 5.8783 -0.758725 -0.939241
thorax 1.72634 -0.192215 -2.47945
lowerneck -8.15984 -0.78391 1.52568
upperneck 4.84269 -1.38252 2.71878
head 2.99325 -0.543134 0.54572
rclavicle -1.39149e-015 3.57812e-015
rhumerus -32.5662 -1.34138 -89.5372
rradius 34.0422
rwrist -0.254674
rhand -19.6244 -9.06732
rfingers 7.12502
rthumb 6.70243 -38.9412
lclavicle -1.39149e-015 3.57812e-015
lhumerus -30.4822 3.3493 83.7151
lradius 32.4179
lwrist 21.1018
lhand -18.8928 19.0339
lfingers 7.12502
lthumb 7.40858 48.8842
rfemur -11.6309 3.97691 23.8649
rtibia 35.557
rfoot -25.2141 -12.5444
rtoes 9.94912
lfemur -2.54559 3.85489 -16.1746
ltibia 19.5457
lfoot -16.0814 3.53942
ltoes -4.78273
113
root -39.2067 17.0507 -5.1275 -103.288 87.1781 -103.513
lowerback 7.98056 -0.880554 2.77757
upperback 5.96352 -0.791125 -0.934975
thorax 1.6474 -0.205144 -2.47061
lowerneck -8.00038 -0.78732 1.51798
upperneck 4.37161 -1.36873 2.73988
head 2.80235 -0.544169 0.55403
rclavicle 6.36111e-015 3.97569e-015
rhumerus -32.507 -1.21073 -89.576
rradius 34.3169
rwrist -0.392616
rhand -19.6268 -9.09947
rfingers 7.12502
rthumb 6.70008 -38.9735
lclavicle 6.36111e-015 3.97569e-015
lhumerus -30.4317 3.23466 83.7397
lradius 32.7153
lwrist 21.197
lhand -18.8886 18.5435
lfingers 7.12502
lthumb 7.41267 48.3936
rfemur -11.9459 3.90876 23.8487
rtibia 35.6496
rfoot -25.2131 -12.5228
rtoes 9.98517
lfemur -2.97392 3.80417 -16.1878
ltibia 19.7841
lfoot -16.0184 3.49835
ltoes -4.77136
114
root -39.2286 17.0527 -5.1259 -104.229 87.1723 -104.673
lowerback 8.30052 -0.900772 2.78072
upperback 6.02818 -0.801685 -0.937572
thorax 1.53806 -0.207975 -2.47178
lowerneck -7.8355 -0.793171 1.5142
upperneck 3.89417 -1.35767 2.75908
head 2.60976 -0.546561 0.560917
rclavicle 4.57205e-015 -6.75868e-015
rhumerus -32.4573 -1.0754 -89.617
rradius 34.6046
rwrist -0.544331
rhand -19.6289 -9.12218
rfingers 7.12502
rthumb 6.6981 -38.9962
lclavicle 4.57205e-015 -6.75868e-015
lhumerus -30.3944 3.10501 83.7613
lradius 33.0295
lwrist 21.3045
lhand -18.8669 17.8064
lfingers 7.12502
lthumb 7.43365 47.6558
rfemur -12.3322 3.85677 23.813
rtibia 35.7569
rfoot -25.1864 -12.4768
rtoes 9.97731
lfemur -3.4592 3.74781 -16.223
ltibia 20.0369
lfoot -15.9464 3.51365
ltoes -4.75732
